<?xml version="1.0" encoding="UTF-8"?>
<svg width="700pt" height="700pt" version="1.1" viewBox="0 0 700 700" xmlns="http://www.w3.org/2000/svg">
 <g fill-rule="evenodd">
  <path d="m688.33 361.67h-605.7l-69.047-11.504c-0.16016-0.035156-0.30078 0.035157-0.46484 0.011719-0.80469-0.10547-1.6211 0.011719-2.4492 0.082031-0.74609 0.070313-1.4844 0.070313-2.1953 0.27734-0.16406 0.046875-0.33594 0-0.5 0.058594-0.55859 0.1875-0.94531 0.58594-1.457 0.83984-0.71484 0.35156-1.4141 0.67969-2.043 1.168-0.60547 0.48828-1.0625 1.0625-1.5625 1.6562-0.46875 0.55078-0.94531 1.0625-1.3203 1.7031-0.40625 0.72266-0.62891 1.5039-0.875 2.3125-0.16406 0.51172-0.47656 0.92969-0.55859 1.4688-0.035156 0.17578 0.035157 0.32422 0.011719 0.48828-0.09375 0.78125 0.011719 1.5664 0.082031 2.3594 0.058594 0.78125 0.070313 1.5391 0.27734 2.2617 0.046875 0.17578 0.011719 0.33984 0.058594 0.5l23.336 70c0.058593 0.17578 0.17187 0.30469 0.24219 0.46875 0.16406 0.42969 0.42188 0.80469 0.63281 1.2148 0.45312 0.85156 0.95703 1.6328 1.5742 2.332 0.3125 0.34766 0.64062 0.66406 1.0039 0.96875 0.72266 0.64062 1.5039 1.1523 2.3438 1.5859 0.39844 0.21094 0.74609 0.41797 1.1562 0.58203 1.3047 0.50391 2.6836 0.82812 4.1172 0.82812h653.33c6.4531 0 11.668-5.2266 11.668-11.664v-58.336c0-6.4375-5.2148-11.664-11.668-11.664"/>
  <path d="m128.33 291.67c6.4414 0 11.727 5.2266 11.727 11.664 0 6.4414-5.168 11.668-11.609 11.668h-0.11719c-6.4375 0-11.664-5.2266-11.664-11.668 0-6.4375 5.2266-11.664 11.664-11.664m43.832 0.34766 0.11719-0.035156c6.2422-1.5625 12.59 2.2422 14.152 8.4961 1.5625 6.25-2.2422 12.586-8.4922 14.148-0.94531 0.23438-1.9023 0.35156-2.8477 0.35156-5.2383 0-10.035-3.5352-11.352-8.832-1.5625-6.2422 2.1797-12.566 8.4219-14.129m49.48-0.34766h0.11719c6.4492 0 11.664 5.2148 11.664 11.664 0 6.4414-5.2148 11.668-11.664 11.668-6.4414 0-11.727-5.2266-11.727-11.668 0-6.4492 5.168-11.664 11.609-11.664m46.688-0.058594c6.4414 0 11.668 5.1562 11.668 11.605v0.11719c0 6.4414-5.2266 11.668-11.668 11.668-6.4375 0-11.664-5.2266-11.664-11.668 0-6.4492 5.2266-11.723 11.664-11.723m141.37 5.9961c3.125-5.625 10.23-7.6641 15.867-4.5273 5.6211 3.125 7.7109 10.254 4.582 15.891-2.1328 3.8477-6.1016 6.0312-10.195 6.0312-1.9023 0-3.8398-0.47656-5.625-1.4688l-0.10156-0.058594c-5.625-3.1289-7.6562-10.234-4.5273-15.867m56.969-5.9492c6.4375 0 11.723 5.2266 11.723 11.664 0 6.4414-5.168 11.668-11.605 11.668h-0.11719c-6.4414 0-11.668-5.2266-11.668-11.668 0-6.4375 5.2266-11.664 11.668-11.664m46.664 0.011719c6.4414 0 11.727 5.2266 11.727 11.664 0 6.4414-5.168 11.668-11.609 11.668h-0.11719c-6.4375 0-11.664-5.2266-11.664-11.668 0-6.4375 5.2266-11.664 11.664-11.664m46.668 0h0.11719c6.4492 0 11.668 5.2266 11.668 11.664 0 6.4414-5.2188 11.668-11.668 11.668-6.4531 0-11.727-5.2266-11.727-11.668 0-6.4375 5.1562-11.664 11.609-11.664m-489.73 48.008c0.09375 0.79297 0.21875 1.5273 0.46484 2.2734 0.23438 0.71094 0.55078 1.3555 0.91016 2.0078 0.36328 0.65234 0.74609 1.2461 1.2266 1.8203 0.48828 0.57031 1.0273 1.0508 1.6094 1.5273 0.58203 0.45703 1.1562 0.86328 1.8203 1.2148 0.6875 0.37109 1.4102 0.61719 2.1797 0.83984 0.44531 0.12891 0.79297 0.40625 1.2617 0.47656 0.65234 0.10547 1.293 0.16406 1.9141 0.16406h245.01v-70h35v70h256.68c1.3789 0 2.7539-0.32812 4.0977-0.82812 0.21875-0.082031 0.44141-0.14062 0.66406-0.23438 0.14062-0.070312 0.30469-0.09375 0.44141-0.16406 0.52734-0.26563 0.86328-0.72266 1.332-1.0469 0.6875-0.48047 1.3867-0.91016 1.9609-1.5312 0.52344-0.55859 0.86328-1.1992 1.2461-1.8438 0.39844-0.64062 0.81641-1.2227 1.0859-1.9219 0.30469-0.79297 0.375-1.6211 0.5-2.4766 0.082031-0.54688 0.32812-1.0469 0.32812-1.6211 0-0.12891-0.070312-0.21875-0.070312-0.34766-0.023438-0.76953-0.28125-1.5195-0.46484-2.2891-0.17578-0.76953-0.28125-1.5391-0.59766-2.2266-0.058594-0.11719-0.046876-0.24609-0.09375-0.35156l-35-70c-0.26563-0.52344-0.71094-0.86328-1.0352-1.3281-0.49219-0.6875-0.92188-1.3906-1.543-1.9609-0.55859-0.52344-1.1992-0.86328-1.8438-1.25-0.64062-0.39453-1.2109-0.81641-1.9219-1.082-0.79297-0.30469-1.6211-0.375-2.4766-0.50391-0.54688-0.082032-1.0469-0.32422-1.6211-0.32422h-490c-0.48828 0-0.91016 0.21875-1.375 0.27734-0.76953 0.09375-1.5039 0.21094-2.2305 0.44531-0.72266 0.24609-1.375 0.55859-2.0273 0.93359-0.65234 0.35938-1.25 0.74609-1.8203 1.2227-0.57031 0.48047-1.0391 1.0156-1.5039 1.6016-0.46875 0.57031-0.88672 1.1523-1.2383 1.8164-0.36328 0.69141-0.60547 1.4141-0.82812 2.1719-0.12891 0.44141-0.41016 0.80469-0.48047 1.2734l-11.664 70c-0.058593 0.33594 0.058594 0.64062 0.023438 0.96484-0.023438 0.33984-0.1875 0.62109-0.1875 0.95703 0 0.48047 0.21094 0.875 0.26953 1.3438"/>
 </g>
</svg>
